#amk 2

#SPC
{
	#author "spc_tools"
	#title "test"
	#game "Custom song/SMW"
	#length "0:10"
	#comment "test for spc tool setup"
}

#0 w200 t50

v200 o4
@10 ; snare drum
(1)[c4 r4 r4 r4]
(1)
@29 ; power set
(11)[c4 r4 r4 r4]
(11)

#1
v200 o4

@21 ; bass drum

(2)[r4 c4 c4 c4]
(2)(2)(2)

#2
v200 o4

@22 ; cymbal

(3)[r4 c4 c4 c4]
(3)(3)(3)